<svg height="1920" node-id="1" sillyvg="true" template-height="1920" template-width="1920" version="1.1" viewBox="0 0 1920 1920" width="1920" xmlns="http://www.w3.org/2000/svg" xmlns:xlink="http://www.w3.org/1999/xlink"><defs node-id="88"></defs><g node-id="230"><path d="M 529.80 250.40 L 529.80 938.10 L 530.00 943.70 L 530.80 949.10 L 531.90 954.40 L 533.60 959.50 L 535.70 964.50 L 538.10 969.30 L 541.00 973.80 L 544.30 978.10 L 547.90 982.10 L 551.90 985.70 L 556.20 989.10 L 560.90 992.10 L 1626.90 1607.50 L 1632.30 1610.30 L 1637.60 1612.50 L 1642.90 1614.10 L 1648.30 1615.20 L 1653.80 1615.80 L 1659.10 1616.00 L 1664.40 1615.70 L 1669.60 1614.90 L 1674.80 1613.60 L 1679.80 1612.00 L 1684.60 1610.00 L 1689.30 1607.50 L 1693.70 1604.70 L 1697.90 1601.60 L 1701.80 1598.10 L 1705.40 1594.20 L 1708.70 1590.10 L 1711.60 1585.60 L 1714.20 1580.90 L 1716.40 1575.90 L 1718.10 1570.70 L 1719.40 1565.30 L 1720.10 1559.60 L 1720.40 1553.60 L 1720.40 889.00 L 1720.20 882.10 L 1719.50 875.40 L 1718.40 868.80 L 1716.90 862.30 L 1714.90 855.90 L 1712.60 849.70 L 1709.90 843.60 L 1706.70 837.80 L 1703.20 832.20 L 1699.40 826.80 L 1695.20 821.70 L 1690.60 816.80 L 1685.80 812.20 L 1680.60 807.90 L 1675.10 804.00 L 1669.30 800.40 L 623.30 196.40 L 617.90 193.70 L 612.60 191.50 L 607.30 189.90 L 601.90 188.80 L 596.50 188.10 L 591.10 188.00 L 585.80 188.30 L 580.60 189.10 L 575.40 190.30 L 570.40 192.00 L 565.60 194.00 L 560.90 196.40 L 556.50 199.20 L 552.30 202.40 L 548.40 205.90 L 544.80 209.80 L 541.50 213.90 L 538.60 218.30 L 536.00 223.00 L 533.80 228.10 L 532.10 233.30 L 530.80 238.70 L 530.10 244.40 L 529.80 250.40 Z" fill="#ebeeff" fill-rule="nonzero" group-id="12" node-id="102" stroke="none" target-height="1428" target-width="1190.6001" target-x="529.8" target-y="188"/><g node-id="231"><path d="M 420.20 340.50 L 420.20 1031.80 L 420.50 1037.30 L 421.20 1042.60 L 422.30 1047.70 L 423.90 1052.70 L 426.00 1057.60 L 428.40 1062.20 L 431.20 1066.60 L 434.40 1070.80 L 437.90 1074.70 L 441.80 1078.30 L 446.00 1081.50 L 450.60 1084.50 L 1519.80 1701.70 L 1525.00 1704.40 L 1530.20 1706.50 L 1535.40 1708.10 L 1540.60 1709.20 L 1545.90 1709.80 L 1551.10 1709.90 L 1556.30 1709.60 L 1561.40 1708.90 L 1566.40 1707.70 L 1571.30 1706.10 L 1576.00 1704.10 L 1580.50 1701.70 L 1584.80 1699.00 L 1588.90 1695.90 L 1592.70 1692.50 L 1596.30 1688.70 L 1599.50 1684.70 L 1602.30 1680.40 L 1604.80 1675.80 L 1607.00 1670.90 L 1608.60 1665.80 L 1609.80 1660.50 L 1610.60 1655.00 L 1610.90 1649.10 L 1610.90 957.80 L 1610.60 952.30 L 1609.90 947.10 L 1608.80 941.90 L 1607.20 936.90 L 1605.20 932.00 L 1602.80 927.40 L 1599.90 923.00 L 1596.70 918.80 L 1593.20 914.90 L 1589.30 911.40 L 1585.10 908.10 L 1580.50 905.20 L 511.40 287.90 L 506.10 285.20 L 500.90 283.10 L 495.80 281.50 L 490.50 280.40 L 485.20 279.80 L 480.00 279.70 L 474.80 280.00 L 469.70 280.80 L 464.70 282.00 L 459.80 283.50 L 455.20 285.50 L 450.60 287.90 L 446.30 290.70 L 442.20 293.70 L 438.40 297.10 L 434.90 300.90 L 431.60 304.90 L 428.80 309.20 L 426.30 313.80 L 424.20 318.80 L 422.50 323.80 L 421.30 329.10 L 420.50 334.70 L 420.20 340.50 Z" fill="#0327f9" fill-rule="nonzero" group-id="12,13" node-id="106" stroke="none" target-height="1430.2" target-width="1190.7" target-x="420.2" target-y="279.7"/><path d="M 420.20 285.20 L 420.20 419.10 L 420.40 422.60 L 422.00 429.00 L 425.00 435.00 L 429.20 440.10 L 431.80 442.20 L 434.60 444.10 L 1567.70 1098.20 L 1571.60 1100.20 L 1575.60 1101.40 L 1579.50 1102.00 L 1583.50 1102.10 L 1587.40 1101.60 L 1591.20 1100.60 L 1594.80 1099.10 L 1598.10 1097.20 L 1601.20 1094.80 L 1604.00 1092.10 L 1606.30 1089.00 L 1608.20 1085.50 L 1609.70 1081.70 L 1610.60 1077.70 L 1610.90 1073.30 L 1610.90 958.10 L 1610.60 952.60 L 1609.90 947.30 L 1608.80 942.10 L 1607.20 937.10 L 1605.10 932.10 L 1602.70 927.50 L 1599.80 923.00 L 1596.60 918.80 L 1593.00 914.80 L 1589.10 911.20 L 1584.80 908.00 L 1580.20 905.00 L 463.50 260.20 L 459.50 258.30 L 455.50 257.10 L 451.60 256.40 L 447.60 256.40 L 443.70 256.80 L 439.90 257.80 L 436.30 259.30 L 433.00 261.30 L 429.90 263.60 L 427.20 266.40 L 424.80 269.50 L 422.90 273.00 L 421.50 276.70 L 420.60 280.80 L 420.20 285.20 Z" fill="#f62ea4" fill-rule="nonzero" group-id="12,13" node-id="108" stroke="none" target-height="845.69995" target-width="1190.7" target-x="420.2" target-y="256.4"/><path d="M 1480.70 961.40 L 1473.90 965.10 L 1470.70 966.20 L 1464.10 967.40 L 1457.40 967.10 L 1454.10 966.30 L 1450.90 965.20 L 1447.80 963.60 L 787.60 581.30 L 783.90 578.80 L 780.80 576.00 L 778.30 572.80 L 776.20 569.40 L 774.60 565.70 L 773.60 561.90 L 773.00 558.00 L 773.00 554.10 L 773.50 550.20 L 774.50 546.40 L 776.10 542.80 L 778.20 539.30 L 780.70 536.10 L 783.80 533.30 L 787.50 530.80 L 794.30 527.00 L 797.50 525.90 L 804.10 524.70 L 810.80 525.10 L 814.10 525.80 L 820.40 528.50 L 1480.60 910.90 L 1484.20 913.40 L 1487.30 916.20 L 1489.90 919.30 L 1492.00 922.80 L 1493.60 926.40 L 1494.60 930.20 L 1495.10 934.10 L 1495.10 938.00 L 1494.60 941.90 L 1493.60 945.70 L 1492.10 949.40 L 1490.00 952.80 L 1487.50 956.00 L 1484.40 958.80 L 1480.70 961.40 Z" fill="#ffffff" fill-rule="nonzero" group-id="12,13" node-id="110" stroke="none" target-height="442.7" target-width="722.1" target-x="773" target-y="524.7"/><path d="M 472.10 387.00 L 472.30 390.70 L 472.90 394.20 L 474.00 397.70 L 475.40 401.00 L 477.20 404.00 L 479.30 406.90 L 481.80 409.50 L 484.50 411.80 L 487.60 413.90 L 495.80 418.40 L 499.00 419.60 L 505.40 420.80 L 509.70 420.90 L 513.90 420.40 L 517.90 419.30 L 521.80 417.70 L 525.40 415.70 L 528.70 413.10 L 531.70 410.10 L 534.20 406.80 L 536.30 403.00 L 538.40 396.80 L 539.10 389.90 L 538.90 386.20 L 538.30 382.60 L 537.30 379.20 L 535.80 375.90 L 534.10 372.90 L 531.90 370.00 L 529.50 367.40 L 526.70 365.00 L 523.60 363.00 L 515.40 358.50 L 512.20 357.30 L 505.80 356.00 L 501.50 356.00 L 497.40 356.50 L 493.30 357.50 L 489.40 359.10 L 485.80 361.20 L 482.50 363.80 L 479.60 366.80 L 477.00 370.10 L 474.90 373.90 L 472.80 380.00 L 472.10 387.00 Z" fill="#ffffff" fill-rule="nonzero" group-id="12,13" node-id="112" stroke="none" target-height="64.899994" target-width="66.99997" target-x="472.1" target-y="356"/><path d="M 521.00 725.70 L 521.00 893.60 L 521.30 899.50 L 522.00 905.20 L 523.30 910.80 L 525.00 916.20 L 527.20 921.50 L 529.80 926.60 L 532.90 931.30 L 536.40 935.90 L 540.20 940.10 L 544.40 944.00 L 549.00 947.50 L 554.00 950.70 L 721.70 1047.50 L 727.40 1050.40 L 733.00 1052.70 L 738.60 1054.50 L 744.30 1055.60 L 750.10 1056.30 L 755.70 1056.40 L 761.30 1056.10 L 766.90 1055.30 L 772.30 1054.00 L 777.60 1052.30 L 782.70 1050.10 L 787.60 1047.50 L 792.40 1044.50 L 796.80 1041.20 L 800.90 1037.50 L 804.80 1033.40 L 808.20 1029.00 L 811.30 1024.40 L 814.00 1019.40 L 816.40 1014.00 L 818.20 1008.50 L 819.50 1002.80 L 820.30 996.80 L 820.60 990.40 L 820.60 822.50 L 820.40 816.60 L 819.60 810.90 L 818.30 805.30 L 816.60 799.80 L 814.40 794.60 L 811.80 789.50 L 808.80 784.80 L 805.30 780.20 L 801.40 776.00 L 797.20 772.10 L 792.60 768.60 L 787.60 765.40 L 620.00 668.60 L 614.30 665.70 L 608.60 663.30 L 603.00 661.60 L 597.40 660.50 L 591.60 659.80 L 585.90 659.60 L 580.30 660.00 L 574.80 660.80 L 569.30 662.10 L 564.00 663.80 L 558.90 666.00 L 554.00 668.60 L 549.30 671.50 L 544.90 674.90 L 540.70 678.60 L 536.90 682.70 L 533.40 687.10 L 530.30 691.70 L 527.60 696.70 L 525.30 702.10 L 523.50 707.50 L 522.10 713.30 L 521.30 719.30 L 521.00 725.70 Z" fill="#ffffff" fill-rule="nonzero" group-id="12,13" node-id="114" stroke="none" target-height="396.80005" target-width="299.59998" target-x="521" target-y="659.6"/><path d="M 530.30 998.30 L 530.60 1000.60 L 531.50 1002.70 L 532.90 1004.50 L 534.80 1006.00 L 720.20 1113.00 L 722.30 1113.90 L 724.30 1114.20 L 726.30 1114.10 L 728.20 1113.50 L 729.90 1112.50 L 731.40 1111.10 L 732.50 1109.50 L 733.20 1107.60 L 733.50 1105.40 L 733.20 1103.00 L 732.30 1100.90 L 730.90 1099.10 L 729.10 1097.70 L 543.60 990.60 L 541.50 989.80 L 539.50 989.40 L 537.50 989.60 L 535.60 990.20 L 533.90 991.20 L 532.50 992.50 L 531.30 994.20 L 530.60 996.10 L 530.30 998.30 Z" fill="#ffffff" fill-rule="nonzero" group-id="12,13" node-id="116" stroke="none" target-height="124.79993" target-width="203.20001" target-x="530.3" target-y="989.4"/><path d="M 758.90 1130.10 L 759.20 1132.40 L 760.10 1134.40 L 761.40 1136.20 L 763.40 1137.80 L 765.50 1138.60 L 767.40 1139.00 L 769.40 1138.80 L 771.30 1138.30 L 773.00 1137.30 L 774.50 1136.00 L 775.60 1134.30 L 776.30 1132.40 L 776.60 1130.20 L 776.30 1127.90 L 775.50 1125.80 L 774.10 1124.00 L 772.10 1122.50 L 770.00 1121.70 L 768.00 1121.30 L 766.10 1121.50 L 764.20 1122.10 L 762.50 1123.10 L 761.00 1124.40 L 759.90 1126.00 L 759.20 1127.90 L 758.90 1130.10 Z" fill="#ffffff" fill-rule="nonzero" group-id="12,13" node-id="118" stroke="none" target-height="17.699951" target-width="17.699951" target-x="758.9" target-y="1121.3"/><path d="M 555.10 429.50 L 555.40 433.20 L 556.00 436.80 L 557.00 440.20 L 558.50 443.50 L 560.20 446.60 L 562.40 449.40 L 564.80 452.00 L 567.60 454.40 L 570.70 456.40 L 578.90 460.90 L 582.10 462.10 L 588.40 463.40 L 592.80 463.40 L 596.90 462.90 L 601.00 461.90 L 604.90 460.30 L 608.40 458.20 L 611.80 455.60 L 614.70 452.60 L 617.20 449.30 L 619.30 445.50 L 621.40 439.40 L 622.00 436.00 L 622.20 432.40 L 622.00 428.70 L 621.30 425.20 L 620.30 421.70 L 618.90 418.50 L 617.10 415.40 L 615.00 412.50 L 612.50 409.90 L 609.80 407.60 L 601.70 402.70 L 595.30 399.80 L 588.90 398.60 L 584.60 398.50 L 580.40 399.00 L 576.40 400.10 L 572.50 401.70 L 568.90 403.80 L 565.60 406.30 L 562.60 409.30 L 560.10 412.60 L 558.00 416.40 L 555.90 422.60 L 555.10 429.50 Z" fill="#ffffff" fill-rule="nonzero" group-id="12,13" node-id="120" stroke="none" target-height="64.899994" target-width="67.10004" target-x="555.1" target-y="398.5"/><path d="M 637.10 474.50 L 637.40 478.20 L 638.00 481.80 L 639.00 485.20 L 640.50 488.50 L 642.20 491.60 L 644.40 494.40 L 646.80 497.00 L 649.60 499.40 L 652.70 501.40 L 660.90 505.90 L 664.10 507.10 L 670.40 508.40 L 674.80 508.40 L 678.90 507.90 L 683.00 506.90 L 686.90 505.30 L 690.40 503.20 L 693.80 500.60 L 696.70 497.60 L 699.20 494.30 L 701.30 490.50 L 703.40 484.40 L 704.00 481.00 L 704.20 477.40 L 704.00 473.70 L 703.30 470.20 L 702.30 466.70 L 700.90 463.50 L 699.10 460.40 L 697.00 457.50 L 694.50 454.90 L 691.80 452.60 L 683.70 447.70 L 677.30 444.80 L 670.90 443.60 L 666.60 443.50 L 662.40 444.00 L 658.40 445.10 L 654.50 446.70 L 650.90 448.80 L 647.60 451.30 L 644.60 454.30 L 642.10 457.60 L 640.00 461.40 L 637.90 467.60 L 637.10 474.50 Z" fill="#ffffff" fill-rule="nonzero" group-id="12,13" node-id="122" stroke="none" target-height="64.899994" target-width="67.10004" target-x="637.1" target-y="443.5"/></g><g node-id="232"><path d="M 140.10 391.60 L 406.40 555.00 L 411.40 558.70 L 416.20 562.60 L 420.70 566.80 L 425.00 571.40 L 432.40 581.10 L 438.60 591.70 L 443.30 603.00 L 445.10 608.90 L 446.50 614.90 L 447.60 621.00 L 448.20 627.30 L 448.40 633.60 L 448.80 888.70 L 448.60 892.40 L 447.10 899.20 L 445.80 902.40 L 443.70 906.30 L 441.00 909.80 L 438.00 912.90 L 434.50 915.60 L 430.80 917.70 L 426.70 919.40 L 422.50 920.50 L 418.20 921.10 L 413.70 921.00 L 407.00 919.70 L 400.30 916.80 L 134.10 753.30 L 129.00 749.60 L 124.20 745.70 L 119.70 741.50 L 115.50 737.00 L 108.00 727.20 L 101.90 716.60 L 97.10 705.30 L 95.30 699.40 L 93.90 693.40 L 92.90 687.30 L 92.20 681.10 L 92.00 674.70 L 91.60 419.60 L 91.90 415.90 L 93.30 409.10 L 94.60 406.00 L 96.80 402.00 L 99.40 398.50 L 102.50 395.40 L 105.90 392.70 L 109.70 390.60 L 113.70 388.90 L 117.90 387.80 L 122.30 387.20 L 126.80 387.30 L 133.40 388.60 L 140.10 391.60 Z" fill="#f62ea4" fill-rule="nonzero" group-id="12,14" node-id="127" stroke="none" target-height="533.89996" target-width="357.19998" target-x="91.6" target-y="387.2"/></g><g node-id="233"><path d="M 935.20 849.80 L 1056.60 919.90 L 1061.10 922.70 L 1065.20 925.90 L 1069.00 929.40 L 1072.50 933.30 L 1075.70 937.40 L 1078.40 941.70 L 1080.80 946.30 L 1082.80 951.10 L 1084.40 956.00 L 1085.50 961.10 L 1086.20 966.20 L 1086.40 971.60 L 1086.40 1053.30 L 1086.20 1056.20 L 1085.70 1058.90 L 1083.60 1063.80 L 1081.50 1066.60 L 1079.10 1069.00 L 1076.20 1070.90 L 1073.10 1072.40 L 1069.80 1073.30 L 1066.40 1073.70 L 1061.10 1073.10 L 1055.80 1071.00 L 934.50 1000.90 L 930.00 998.00 L 925.80 994.80 L 922.00 991.30 L 918.50 987.50 L 915.40 983.40 L 912.60 979.00 L 910.30 974.50 L 908.30 969.70 L 906.70 964.80 L 905.60 959.70 L 904.90 954.50 L 904.60 949.20 L 904.60 867.50 L 904.90 864.50 L 905.40 861.80 L 907.50 857.00 L 909.60 854.10 L 912.00 851.80 L 914.80 849.80 L 918.00 848.30 L 921.20 847.40 L 924.70 847.00 L 930.00 847.60 L 935.20 849.80 Z" fill="#f62ea4" fill-rule="nonzero" group-id="12,15" node-id="132" stroke="none" target-height="226.69995" target-width="181.80005" target-x="904.6" target-y="847"/><path d="M 905.00 1034.10 L 905.30 1030.70 L 905.90 1028.00 L 906.90 1025.90 L 908.30 1024.10 L 909.90 1022.80 L 911.80 1022.20 L 913.90 1022.00 L 916.10 1022.50 L 918.80 1023.70 L 1098.30 1127.30 L 1100.70 1129.00 L 1103.00 1131.10 L 1107.10 1136.70 L 1110.10 1143.20 L 1111.80 1150.20 L 1112.00 1153.60 L 1111.80 1156.90 L 1111.10 1159.60 L 1110.10 1161.80 L 1108.70 1163.60 L 1107.10 1164.80 L 1105.20 1165.50 L 1103.20 1165.60 L 1100.90 1165.20 L 1098.20 1164.00 L 918.80 1060.40 L 916.30 1058.70 L 914.00 1056.50 L 911.80 1053.90 L 908.30 1047.80 L 905.80 1040.90 L 905.00 1034.10 Z" fill="#ffffff" fill-rule="nonzero" group-id="12,15" node-id="134" stroke="none" target-height="143.59998" target-width="207" target-x="905" target-y="1022"/><path d="M 905.30 1086.40 L 905.90 1082.60 L 907.50 1080.50 L 909.80 1079.80 L 911.20 1080.00 L 912.90 1080.70 L 1012.20 1138.00 L 1014.10 1139.50 L 1016.00 1141.60 L 1017.50 1144.10 L 1018.70 1146.80 L 1019.50 1149.70 L 1019.80 1152.50 L 1019.60 1154.70 L 1019.10 1156.30 L 1017.50 1158.40 L 1016.40 1159.00 L 1015.20 1159.20 L 1013.80 1159.00 L 1012.20 1158.30 L 912.90 1101.00 L 910.90 1099.50 L 909.00 1097.40 L 907.50 1094.90 L 906.30 1092.20 L 905.50 1089.30 L 905.30 1086.40 Z" fill="#ffffff" fill-rule="nonzero" group-id="12,15" node-id="136" stroke="none" target-height="79.3999" target-width="114.5" target-x="905.3" target-y="1079.8"/><path d="M 905.30 1164.10 L 905.90 1160.30 L 907.50 1158.20 L 909.80 1157.40 L 912.90 1158.30 L 1012.20 1215.60 L 1014.10 1217.10 L 1016.00 1219.20 L 1017.50 1221.70 L 1018.70 1224.40 L 1019.50 1227.30 L 1019.80 1230.20 L 1019.60 1232.30 L 1018.40 1235.20 L 1016.40 1236.60 L 1015.20 1236.80 L 1013.80 1236.60 L 1012.20 1235.90 L 912.90 1178.60 L 910.90 1177.10 L 909.00 1175.00 L 907.50 1172.50 L 906.30 1169.80 L 905.50 1166.90 L 905.30 1164.10 Z" fill="#ffffff" fill-rule="nonzero" group-id="12,15" node-id="138" stroke="none" target-height="79.400024" target-width="114.5" target-x="905.3" target-y="1157.4"/><path d="M 905.30 1203.80 L 905.90 1200.00 L 907.50 1197.90 L 908.60 1197.30 L 909.80 1197.10 L 911.20 1197.30 L 912.90 1198.00 L 973.00 1232.70 L 974.90 1234.20 L 976.80 1236.30 L 978.30 1238.80 L 979.50 1241.50 L 980.30 1244.40 L 980.60 1247.20 L 979.90 1251.00 L 978.30 1253.10 L 976.00 1253.90 L 974.60 1253.70 L 973.00 1253.00 L 912.90 1218.30 L 910.90 1216.80 L 909.00 1214.70 L 907.50 1212.30 L 906.30 1209.50 L 905.50 1206.60 L 905.30 1203.80 Z" fill="#ffffff" fill-rule="nonzero" group-id="12,15" node-id="140" stroke="none" target-height="56.80005" target-width="75.29999" target-x="905.3" target-y="1197.1"/><path d="M 958.90 1157.80 L 959.60 1154.00 L 961.10 1151.90 L 962.20 1151.40 L 963.40 1151.20 L 964.80 1151.40 L 966.50 1152.10 L 1009.50 1176.90 L 1011.50 1178.40 L 1013.40 1180.50 L 1014.90 1183.00 L 1016.10 1185.70 L 1016.90 1188.60 L 1017.20 1191.50 L 1016.50 1195.20 L 1014.90 1197.30 L 1013.80 1197.90 L 1012.60 1198.10 L 1011.20 1197.90 L 1009.50 1197.20 L 966.50 1172.40 L 964.50 1170.90 L 962.70 1168.80 L 961.10 1166.30 L 959.90 1163.60 L 959.20 1160.70 L 958.90 1157.80 Z" fill="#ffffff" fill-rule="nonzero" group-id="12,15" node-id="142" stroke="none" target-height="46.900024" target-width="58.299988" target-x="958.9" target-y="1151.2"/><path d="M 905.30 1126.20 L 905.90 1122.40 L 907.50 1120.30 L 908.60 1119.70 L 909.80 1119.50 L 911.20 1119.70 L 912.90 1120.40 L 940.10 1136.20 L 942.10 1137.60 L 944.00 1139.80 L 946.70 1145.00 L 947.50 1147.90 L 947.80 1150.70 L 947.10 1154.50 L 945.50 1156.60 L 944.40 1157.20 L 943.20 1157.40 L 941.80 1157.20 L 940.10 1156.50 L 912.90 1140.70 L 910.90 1139.20 L 909.00 1137.10 L 907.50 1134.70 L 906.30 1131.90 L 905.50 1129.00 L 905.30 1126.20 Z" fill="#ffffff" fill-rule="nonzero" group-id="12,15" node-id="144" stroke="none" target-height="37.900024" target-width="42.5" target-x="905.3" target-y="1119.5"/></g><path d="M 1739.70 1040.90 L 1817.90 1082.40 L 1820.40 1084.20 L 1822.40 1086.20 L 1824.10 1088.60 L 1825.40 1091.30 L 1826.10 1094.10 L 1826.40 1097.10 L 1826.40 1189.30 L 1825.70 1192.00 L 1825.00 1193.00 L 1823.50 1194.30 L 1821.70 1195.00 L 1819.10 1194.80 L 1739.50 1152.80 L 1737.00 1151.00 L 1734.90 1149.00 L 1733.30 1146.50 L 1732.00 1143.90 L 1731.30 1141.10 L 1731.00 1138.10 L 1731.00 1045.90 L 1731.60 1043.20 L 1732.40 1042.10 L 1733.90 1040.90 L 1735.70 1040.20 L 1737.00 1040.10 L 1739.70 1040.90 Z" fill="#0327f9" fill-rule="nonzero" group-id="12" node-id="147" stroke="none" target-height="154.90002" target-width="95.400024" target-x="1731" target-y="1040.1"/><path d="M 1638.60 1109.10 L 1672.80 1127.20 L 1674.40 1128.40 L 1675.60 1129.90 L 1676.30 1131.70 L 1676.60 1133.60 L 1676.60 1173.90 L 1676.40 1174.90 L 1675.30 1176.10 L 1673.60 1176.40 L 1672.70 1176.10 L 1638.50 1158.00 L 1637.00 1156.80 L 1635.80 1155.30 L 1635.10 1153.50 L 1634.80 1151.60 L 1634.80 1111.30 L 1635.00 1110.30 L 1636.10 1109.00 L 1637.70 1108.70 L 1638.60 1109.10 Z" fill="#f62ea4" fill-rule="nonzero" group-id="12" node-id="149" stroke="none" target-height="67.70007" target-width="41.799927" target-x="1634.8" target-y="1108.7"/><g node-id="234"><g node-id="238"><path d="M 362.50 845.00 L 361.30 638.60 L 395.10 657.80 L 396.30 864.20 Z" fill="#ffffff" fill-rule="nonzero" group-id="12,16,20" node-id="155" stroke="none" target-height="225.60004" target-width="35" target-x="361.3" target-y="638.6"/><path d="M 306.40 800.70 L 305.60 664.10 L 339.40 683.30 L 340.20 819.90 Z" fill="#ffffff" fill-rule="nonzero" group-id="12,16,20" node-id="157" stroke="none" target-height="155.80005" target-width="34.600006" target-x="305.6" target-y="664.1"/><path d="M 250.40 768.80 L 249.90 679.30 L 283.70 698.50 L 284.20 788.10 Z" fill="#ffffff" fill-rule="nonzero" group-id="12,16,20" node-id="159" stroke="none" target-height="108.79999" target-width="34.30002" target-x="249.9" target-y="679.3"/><path d="M 194.40 737.00 L 194.00 679.60 L 227.80 698.80 L 228.20 756.20 Z" fill="#ffffff" fill-rule="nonzero" group-id="12,16,20" node-id="161" stroke="none" target-height="76.60004" target-width="34.199997" target-x="194" target-y="679.6"/><path d="M 138.30 705.10 L 138.20 680.30 L 172.00 699.50 L 172.10 724.30 Z" fill="#ffffff" fill-rule="nonzero" group-id="12,16,20" node-id="163" stroke="none" target-height="44" target-width="33.90001" target-x="138.2" target-y="680.3"/></g><path d="M 148.00 499.20 L 148.20 486.30 L 181.10 507.00 L 181.00 519.80 Z" fill="#ffffff" fill-rule="nonzero" group-id="12,16" node-id="166" stroke="none" target-height="33.5" target-width="33.100006" target-x="148" target-y="486.3"/><path d="M 189.90 524.30 L 190.00 511.40 L 223.00 532.10 L 222.90 544.90 Z" fill="#ffffff" fill-rule="nonzero" group-id="12,16" node-id="168" stroke="none" target-height="33.50003" target-width="33.100006" target-x="189.9" target-y="511.4"/></g><g node-id="235"><g node-id="239"><g node-id="241"><path d="M 1321.30 1481.90 L 1393.10 1524.20 L 1394.50 1319.30 L 1322.60 1276.90 Z" fill="#f62ea4" fill-rule="nonzero" group-id="12,17,21,23" node-id="177" stroke="none" target-height="247.29993" target-width="73.19995" target-x="1321.3" target-y="1276.9"/><path d="M 1212.60 1417.90 L 1284.50 1460.20 L 1285.80 1368.30 L 1214.00 1325.90 Z" fill="#ffffff" fill-rule="nonzero" group-id="12,17,21,23" node-id="179" stroke="none" target-height="134.29993" target-width="73.20007" target-x="1212.6" target-y="1325.9"/><path d="M 1110.10 1359.80 L 1182.00 1402.10 L 1182.40 1351.00 L 1110.60 1308.70 Z" fill="#ffffff" fill-rule="nonzero" group-id="12,17,21,23" node-id="181" stroke="none" target-height="93.400024" target-width="72.30005" target-x="1110.1" target-y="1308.7"/><path d="M 1438.90 1366.30 L 1436.70 1549.40 L 1508.60 1591.70 L 1510.70 1408.60 Z" fill="#ffffff" fill-rule="nonzero" group-id="12,17,21,23" node-id="183" stroke="none" target-height="225.3999" target-width="74" target-x="1436.7" target-y="1366.3"/></g></g></g><g node-id="236"><g node-id="240"><path d="M 1535.60 1310.10 L 1441.20 1280.00 L 1374.00 1200.70 L 1319.40 1225.50 L 1269.30 1047.70 L 1171.60 1047.70 L 1171.60 1041.70 L 1273.90 1041.70 L 1323.20 1217.20 L 1375.70 1193.40 L 1444.70 1274.80 L 1537.40 1304.40 Z" fill="#ffffff" fill-rule="nonzero" group-id="12,18,22" node-id="192" stroke="none" target-height="268.40002" target-width="365.80005" target-x="1171.6" target-y="1041.7"/><path d="M 1525.00 1312.50 L 1526.50 1315.50 L 1528.30 1318.00 L 1530.30 1320.10 L 1532.60 1322.00 L 1534.90 1323.30 L 1537.20 1324.20 L 1539.60 1324.60 L 1541.80 1324.40 L 1544.00 1323.80 L 1546.00 1322.60 L 1547.50 1320.90 L 1548.80 1318.90 L 1549.70 1316.60 L 1550.20 1314.00 L 1550.30 1311.10 L 1550.00 1308.20 L 1548.10 1302.00 L 1546.50 1299.10 L 1544.70 1296.60 L 1542.70 1294.40 L 1540.40 1292.60 L 1535.90 1290.40 L 1533.50 1290.00 L 1531.20 1290.10 L 1529.00 1290.80 L 1527.10 1292.00 L 1525.50 1293.60 L 1524.20 1295.70 L 1523.30 1298.00 L 1522.80 1300.60 L 1522.70 1303.50 L 1523.00 1306.40 L 1523.80 1309.40 L 1525.00 1312.50 Z" fill="#ffffff" fill-rule="nonzero" group-id="12,18,22" node-id="194" stroke="none" target-height="34.599976" target-width="27.600098" target-x="1522.7" target-y="1290"/><path d="M 1431.40 1282.60 L 1434.80 1288.10 L 1436.80 1290.20 L 1439.10 1292.00 L 1441.30 1293.40 L 1443.60 1294.20 L 1446.00 1294.70 L 1448.30 1294.50 L 1450.50 1293.90 L 1452.40 1292.60 L 1454.00 1291.00 L 1455.30 1289.00 L 1456.10 1286.70 L 1456.60 1284.10 L 1456.70 1281.20 L 1456.40 1278.30 L 1454.50 1272.10 L 1451.10 1266.60 L 1446.90 1262.70 L 1444.60 1261.30 L 1442.30 1260.50 L 1439.90 1260.10 L 1437.70 1260.20 L 1435.50 1260.90 L 1433.50 1262.10 L 1431.90 1263.70 L 1430.70 1265.80 L 1429.80 1268.10 L 1429.30 1270.70 L 1429.50 1276.50 L 1431.40 1282.60 Z" fill="#ffffff" fill-rule="nonzero" group-id="12,18,22" node-id="196" stroke="none" target-height="34.599976" target-width="27.399902" target-x="1429.3" target-y="1260.1"/><path d="M 1363.30 1202.30 L 1364.90 1205.20 L 1366.70 1207.80 L 1368.70 1209.90 L 1370.90 1211.70 L 1373.20 1213.10 L 1375.50 1213.90 L 1377.90 1214.30 L 1380.20 1214.20 L 1382.40 1213.50 L 1384.30 1212.30 L 1385.90 1210.70 L 1387.20 1208.60 L 1388.00 1206.30 L 1388.50 1203.80 L 1388.30 1197.90 L 1386.40 1191.80 L 1383.00 1186.30 L 1378.80 1182.40 L 1376.50 1181.00 L 1374.20 1180.20 L 1371.80 1179.80 L 1369.50 1179.90 L 1367.40 1180.60 L 1365.40 1181.80 L 1363.80 1183.40 L 1362.50 1185.50 L 1361.70 1187.80 L 1361.20 1190.30 L 1361.10 1193.30 L 1361.40 1196.20 L 1363.30 1202.30 Z" fill="#ffffff" fill-rule="nonzero" group-id="12,18,22" node-id="198" stroke="none" target-height="34.5" target-width="27.400024" target-x="1361.1" target-y="1179.8"/><path d="M 1309.80 1226.60 L 1311.30 1229.60 L 1313.10 1232.10 L 1315.10 1234.20 L 1317.40 1236.00 L 1319.60 1237.40 L 1321.90 1238.20 L 1324.30 1238.70 L 1326.60 1238.50 L 1328.80 1237.90 L 1330.70 1236.60 L 1332.30 1235.00 L 1333.60 1233.00 L 1334.90 1228.10 L 1335.00 1225.20 L 1334.70 1222.30 L 1334.00 1219.30 L 1332.80 1216.10 L 1331.30 1213.20 L 1329.50 1210.60 L 1325.20 1206.70 L 1322.90 1205.30 L 1320.60 1204.50 L 1318.20 1204.10 L 1316.00 1204.20 L 1313.80 1204.90 L 1311.80 1206.10 L 1310.30 1207.70 L 1309.00 1209.80 L 1308.10 1212.10 L 1307.60 1214.70 L 1307.50 1217.60 L 1307.80 1220.50 L 1309.80 1226.60 Z" fill="#ffffff" fill-rule="nonzero" group-id="12,18,22" node-id="200" stroke="none" target-height="34.599976" target-width="27.5" target-x="1307.5" target-y="1204.1"/><g node-id="242"><path d="M 1308.10 1028.00 L 1310.40 1033.50 L 1312.20 1039.00 L 1313.60 1044.30 L 1314.60 1049.60 L 1315.20 1060.20 L 1315.00 1065.10 L 1314.30 1069.80 L 1313.20 1074.50 L 1311.80 1078.80 L 1309.90 1082.70 L 1307.80 1086.30 L 1305.20 1089.70 L 1302.30 1092.50 L 1299.10 1094.90 L 1295.40 1096.90 L 1291.50 1098.40 L 1287.60 1099.20 L 1283.50 1099.60 L 1279.30 1099.30 L 1275.20 1098.60 L 1271.00 1097.40 L 1266.80 1095.70 L 1262.60 1093.40 L 1258.60 1090.90 L 1254.70 1087.80 L 1250.90 1084.40 L 1247.20 1080.40 L 1243.80 1076.20 L 1240.60 1071.70 L 1237.70 1066.70 L 1235.00 1061.40 L 1232.70 1055.80 L 1230.90 1050.40 L 1228.60 1039.70 L 1228.00 1034.30 L 1227.90 1029.10 L 1228.20 1024.20 L 1228.80 1019.50 L 1229.90 1014.80 L 1231.40 1010.50 L 1233.20 1006.60 L 1235.30 1003.00 L 1237.90 999.70 L 1240.80 996.80 L 1244.10 994.40 L 1247.70 992.40 L 1251.60 991.00 L 1255.50 990.10 L 1259.60 989.80 L 1263.80 990.00 L 1267.90 990.70 L 1272.10 991.90 L 1276.30 993.60 L 1280.50 995.90 L 1284.50 998.50 L 1288.40 1001.50 L 1292.20 1005.00 L 1296.00 1008.90 L 1299.30 1013.10 L 1302.50 1017.70 L 1308.10 1028.00 Z" fill="#ffffff" fill-rule="nonzero" group-id="12,18,22,24" node-id="204" stroke="none" target-height="109.79999" target-width="87.29993" target-x="1227.9" target-y="989.8"/></g><path d="M 1160.00 1050.00 L 1161.60 1052.90 L 1163.40 1055.40 L 1165.40 1057.60 L 1167.60 1059.40 L 1169.90 1060.70 L 1172.20 1061.60 L 1174.60 1062.00 L 1176.90 1061.90 L 1179.10 1061.20 L 1181.00 1060.00 L 1182.60 1058.40 L 1183.90 1056.30 L 1184.70 1054.00 L 1185.20 1051.40 L 1185.00 1045.60 L 1184.30 1042.60 L 1183.10 1039.50 L 1181.50 1036.50 L 1179.70 1034.00 L 1175.50 1030.00 L 1173.20 1028.70 L 1170.90 1027.80 L 1168.50 1027.40 L 1166.30 1027.60 L 1164.10 1028.20 L 1162.10 1029.40 L 1160.50 1031.00 L 1159.30 1033.10 L 1158.40 1035.40 L 1157.90 1038.00 L 1157.80 1040.90 L 1158.10 1043.80 L 1158.80 1046.80 L 1160.00 1050.00 Z" fill="#ffffff" fill-rule="nonzero" group-id="12,18,22" node-id="207" stroke="none" target-height="34.599976" target-width="27.399902" target-x="1157.8" target-y="1027.4"/></g></g><g node-id="237"><path d="M 436.70 166.80 L 436.90 162.80 L 437.50 159.40 L 438.40 156.50 L 439.60 154.10 L 441.20 151.90 L 443.00 150.20 L 445.00 149.00 L 447.20 148.30 L 449.50 148.10 L 452.10 148.30 L 454.90 149.10 L 458.00 150.60 L 1094.30 514.00 L 1099.90 518.20 L 1102.60 521.00 L 1107.40 527.30 L 1109.50 530.90 L 1111.30 534.70 L 1114.10 542.60 L 1115.00 546.70 L 1115.80 554.60 L 1115.60 558.60 L 1115.00 562.00 L 1114.10 564.90 L 1112.90 567.30 L 1111.30 569.50 L 1109.60 571.20 L 1107.60 572.40 L 1105.30 573.10 L 1103.00 573.30 L 1100.40 573.10 L 1097.60 572.30 L 1094.50 570.80 L 458.20 207.40 L 452.60 203.20 L 449.90 200.40 L 445.10 194.10 L 443.10 190.50 L 439.70 182.80 L 438.40 178.80 L 437.50 174.70 L 436.70 166.80 Z" fill="#0327f9" fill-rule="nonzero" group-id="12,19" node-id="213" stroke="none" target-height="425.19998" target-width="679.10004" target-x="436.7" target-y="148.1"/><path d="M 458.10 180.00 L 458.80 176.10 L 460.30 174.00 L 461.40 173.40 L 462.70 173.20 L 464.10 173.40 L 465.80 174.10 L 516.10 202.80 L 518.10 204.30 L 519.90 206.40 L 521.50 208.90 L 522.70 211.70 L 523.50 214.60 L 523.80 217.50 L 523.60 219.60 L 522.50 222.50 L 520.50 224.00 L 519.20 224.20 L 517.80 224.00 L 516.10 223.30 L 465.90 194.60 L 463.80 193.10 L 462.00 191.00 L 460.40 188.50 L 459.20 185.70 L 458.40 182.80 L 458.10 180.00 Z" fill="#ffffff" fill-rule="nonzero" group-id="12,19" node-id="215" stroke="none" target-height="51" target-width="65.69998" target-x="458.1" target-y="173.2"/><path d="M 1046.80 1502.80 L 1047.00 1498.80 L 1047.60 1495.40 L 1048.50 1492.60 L 1049.70 1490.20 L 1051.20 1488.00 L 1053.00 1486.30 L 1055.00 1485.10 L 1057.30 1484.40 L 1059.60 1484.20 L 1062.10 1484.40 L 1064.90 1485.20 L 1068.00 1486.70 L 1547.60 1762.90 L 1550.50 1764.70 L 1553.20 1767.10 L 1555.90 1769.80 L 1560.60 1776.10 L 1562.70 1779.80 L 1566.10 1787.40 L 1567.30 1791.40 L 1568.30 1795.40 L 1569.00 1803.30 L 1568.80 1807.30 L 1568.20 1810.70 L 1567.30 1813.50 L 1566.20 1815.90 L 1564.60 1818.10 L 1562.80 1819.80 L 1560.80 1821.00 L 1558.60 1821.70 L 1556.30 1822.00 L 1553.70 1821.70 L 1550.90 1820.90 L 1547.80 1819.40 L 1068.20 1543.30 L 1065.40 1541.40 L 1062.60 1539.10 L 1059.90 1536.30 L 1055.20 1530.00 L 1053.10 1526.40 L 1049.80 1518.80 L 1048.50 1514.80 L 1047.60 1510.70 L 1046.80 1502.80 Z" fill="#f62ea4" fill-rule="nonzero" group-id="12,19" node-id="217" stroke="none" target-height="337.80005" target-width="522.19995" target-x="1046.8" target-y="1484.2"/></g></g></svg>